<svg xmlns="http://www.w3.org/2000/svg" width="1200" height="400" viewBox="0 0 1200 400" role="img" aria-label="Hi, I'm Nandika P T: CSE @ CUSAT, BS Data Science @ IIT Madras, quantum computing, mathematical modeling">
<defs>
<pattern id="dots" width="24" height="24" patternUnits="userSpaceOnUse"><circle cx="2" cy="2" r="1" fill="#FFFFFF" opacity="0.05"/></pattern>
<linearGradient id="name" x1="0" y1="0" x2="1" y2="0"><stop offset="0" stop-color="#D38DB2"/><stop offset="0.5" stop-color="#DDBE82"/><stop offset="1" stop-color="#A897D8"/>
<animateTransform attributeName="gradientTransform" type="translate" values="-0.4 0;0.4 0;-0.4 0" dur="8s" repeatCount="indefinite"/></linearGradient>
<radialGradient id="glowL" cx="0.5" cy="0.5" r="0.5"><stop offset="0" stop-color="#D38DB2" stop-opacity="0.16"/><stop offset="1" stop-color="#D38DB2" stop-opacity="0"/></radialGradient>
<radialGradient id="glowR" cx="0.5" cy="0.5" r="0.5"><stop offset="0" stop-color="#A897D8" stop-opacity="0.2"/><stop offset="1" stop-color="#A897D8" stop-opacity="0"/></radialGradient>
<clipPath id="card"><rect width="1200" height="400" rx="24"/></clipPath>
</defs>
<g clip-path="url(#card)">
<rect width="1200" height="400" fill="#0F0D1C"/>
<rect width="1200" height="400" fill="url(#dots)"/>
<ellipse cx="220" cy="120" rx="360" ry="220" fill="url(#glowL)"><animate attributeName="cx" values="220;300;220" dur="14s" repeatCount="indefinite"/></ellipse>
<ellipse cx="930" cy="210" rx="380" ry="240" fill="url(#glowR)"><animate attributeName="cy" values="210;170;210" dur="11s" repeatCount="indefinite"/></ellipse>
<g><animateTransform attributeName="transform" type="translate" values="285.6 -20;298 420" dur="12.8s" begin="-4.7s" repeatCount="indefinite"/><g><animateTransform attributeName="transform" type="rotate" values="0;360" dur="6.4s" repeatCount="indefinite"/><path d="M0 0 C -24 -16, -30 -56, 0 -76 C 30 -56, 24 -16, 0 0 Z" fill="#D38DB2" fill-opacity="0.55" transform="scale(0.1)"/></g></g><g><animateTransform attributeName="transform" type="translate" values="1090.6 -20;1053.6 420" dur="12.3s" begin="-6.8s" repeatCount="indefinite"/><g><animateTransform attributeName="transform" type="rotate" values="0;360" dur="6.1s" repeatCount="indefinite"/><path d="M0 0 C -24 -16, -30 -56, 0 -76 C 30 -56, 24 -16, 0 0 Z" fill="#DDBE82" fill-opacity="0.55" transform="scale(0.1)"/></g></g><g><animateTransform attributeName="transform" type="translate" values="659.6 -20;627.4 420" dur="11.8s" begin="-10.1s" repeatCount="indefinite"/><g><animateTransform attributeName="transform" type="rotate" values="0;360" dur="5.9s" repeatCount="indefinite"/><path d="M0 0 C -24 -16, -30 -56, 0 -76 C 30 -56, 24 -16, 0 0 Z" fill="#A897D8" fill-opacity="0.55" transform="scale(0.1)"/></g></g><g><animateTransform attributeName="transform" type="translate" values="627.8 -20;575.5 420" dur="14.2s" begin="-9.5s" repeatCount="indefinite"/><g><animateTransform attributeName="transform" type="rotate" values="0;360" dur="7.1s" repeatCount="indefinite"/><path d="M0 0 C -24 -16, -30 -56, 0 -76 C 30 -56, 24 -16, 0 0 Z" fill="#D38DB2" fill-opacity="0.55" transform="scale(0.1)"/></g></g><g><animateTransform attributeName="transform" type="translate" values="37.2 -20;63.5 420" dur="15.1s" begin="-7.1s" repeatCount="indefinite"/><g><animateTransform attributeName="transform" type="rotate" values="0;360" dur="7.5s" repeatCount="indefinite"/><path d="M0 0 C -24 -16, -30 -56, 0 -76 C 30 -56, 24 -16, 0 0 Z" fill="#DDBE82" fill-opacity="0.55" transform="scale(0.1)"/></g></g><g><animateTransform attributeName="transform" type="translate" values="1105.3 -20;1098.7 420" dur="11.8s" begin="-9.4s" repeatCount="indefinite"/><g><animateTransform attributeName="transform" type="rotate" values="0;360" dur="5.9s" repeatCount="indefinite"/><path d="M0 0 C -24 -16, -30 -56, 0 -76 C 30 -56, 24 -16, 0 0 Z" fill="#A897D8" fill-opacity="0.55" transform="scale(0.1)"/></g></g><g><animateTransform attributeName="transform" type="translate" values="116.9 -20;172.8 420" dur="10s" begin="-2.2s" repeatCount="indefinite"/><g><animateTransform attributeName="transform" type="rotate" values="0;360" dur="5s" repeatCount="indefinite"/><path d="M0 0 C -24 -16, -30 -56, 0 -76 C 30 -56, 24 -16, 0 0 Z" fill="#DDBE82" fill-opacity="0.55" transform="scale(0.1)"/></g></g><g><animateTransform attributeName="transform" type="translate" values="1026.3 -20;1035.2 420" dur="11.9s" begin="-10s" repeatCount="indefinite"/><g><animateTransform attributeName="transform" type="rotate" values="0;360" dur="6s" repeatCount="indefinite"/><path d="M0 0 C -24 -16, -30 -56, 0 -76 C 30 -56, 24 -16, 0 0 Z" fill="#DDBE82" fill-opacity="0.55" transform="scale(0.1)"/></g></g><g><animateTransform attributeName="transform" type="translate" values="1085 -20;1127.8 420" dur="13.8s" begin="-12.8s" repeatCount="indefinite"/><g><animateTransform attributeName="transform" type="rotate" values="0;360" dur="6.9s" repeatCount="indefinite"/><path d="M0 0 C -24 -16, -30 -56, 0 -76 C 30 -56, 24 -16, 0 0 Z" fill="#A897D8" fill-opacity="0.55" transform="scale(0.1)"/></g></g><g><animateTransform attributeName="transform" type="translate" values="391.7 -20;344.2 420" dur="12.8s" begin="-7.3s" repeatCount="indefinite"/><g><animateTransform attributeName="transform" type="rotate" values="0;360" dur="6.4s" repeatCount="indefinite"/><path d="M0 0 C -24 -16, -30 -56, 0 -76 C 30 -56, 24 -16, 0 0 Z" fill="#A897D8" fill-opacity="0.55" transform="scale(0.1)"/></g></g><g><animateTransform attributeName="transform" type="translate" values="1185.7 -20;1183.5 420" dur="10.9s" begin="-1.4s" repeatCount="indefinite"/><g><animateTransform attributeName="transform" type="rotate" values="0;360" dur="5.4s" repeatCount="indefinite"/><path d="M0 0 C -24 -16, -30 -56, 0 -76 C 30 -56, 24 -16, 0 0 Z" fill="#DDBE82" fill-opacity="0.55" transform="scale(0.1)"/></g></g><g><animateTransform attributeName="transform" type="translate" values="960.7 -20;936 420" dur="11.9s" begin="-1.8s" repeatCount="indefinite"/><g><animateTransform attributeName="transform" type="rotate" values="0;360" dur="5.9s" repeatCount="indefinite"/><path d="M0 0 C -24 -16, -30 -56, 0 -76 C 30 -56, 24 -16, 0 0 Z" fill="#DDBE82" fill-opacity="0.55" transform="scale(0.1)"/></g></g><g><animateTransform attributeName="transform" type="translate" values="53 -20;79.2 420" dur="13.3s" begin="-0.6s" repeatCount="indefinite"/><g><animateTransform attributeName="transform" type="rotate" values="0;360" dur="6.7s" repeatCount="indefinite"/><path d="M0 0 C -24 -16, -30 -56, 0 -76 C 30 -56, 24 -16, 0 0 Z" fill="#E8B7D0" fill-opacity="0.55" transform="scale(0.1)"/></g></g><g><animateTransform attributeName="transform" type="translate" values="1106.3 -20;1050.6 420" dur="11s" begin="-2.6s" repeatCount="indefinite"/><g><animateTransform attributeName="transform" type="rotate" values="0;360" dur="5.5s" repeatCount="indefinite"/><path d="M0 0 C -24 -16, -30 -56, 0 -76 C 30 -56, 24 -16, 0 0 Z" fill="#D38DB2" fill-opacity="0.55" transform="scale(0.1)"/></g></g><g><animateTransform attributeName="transform" type="translate" values="719.7 -20;708.7 420" dur="9.2s" begin="-1.8s" repeatCount="indefinite"/><g><animateTransform attributeName="transform" type="rotate" values="0;360" dur="4.6s" repeatCount="indefinite"/><path d="M0 0 C -24 -16, -30 -56, 0 -76 C 30 -56, 24 -16, 0 0 Z" fill="#E8B7D0" fill-opacity="0.55" transform="scale(0.1)"/></g></g><g><animateTransform attributeName="transform" type="translate" values="50.9 -20;106 420" dur="15.1s" begin="-4.7s" repeatCount="indefinite"/><g><animateTransform attributeName="transform" type="rotate" values="0;360" dur="7.5s" repeatCount="indefinite"/><path d="M0 0 C -24 -16, -30 -56, 0 -76 C 30 -56, 24 -16, 0 0 Z" fill="#DDBE82" fill-opacity="0.55" transform="scale(0.1)"/></g></g>
<defs><radialGradient id="sp12" cx="42%" cy="30%" r="80%"><stop offset="0" stop-color="#F6E9F1"/><stop offset="0.22" stop-color="#E8B7D0"/><stop offset="0.62" stop-color="#D38DB2"/><stop offset="1" stop-color="#6E2F55"/></radialGradient><radialGradient id="sp13" cx="42%" cy="30%" r="80%"><stop offset="0" stop-color="#F6E9F1"/><stop offset="0.22" stop-color="#D6CCF0"/><stop offset="0.62" stop-color="#A897D8"/><stop offset="1" stop-color="#3E2F73"/></radialGradient><radialGradient id="sc14" cx="38%" cy="32%" r="70%"><stop offset="0" stop-color="#FFF6E0"/><stop offset="0.35" stop-color="#EBCB8B"/><stop offset="1" stop-color="#9C6B25"/></radialGradient><radialGradient id="shadow" cx="0.5" cy="0.5" r="0.5"><stop offset="0" stop-color="#000" stop-opacity="0.55"/><stop offset="1" stop-color="#000" stop-opacity="0"/></radialGradient></defs><ellipse cx="930" cy="318" rx="150" ry="18" fill="url(#shadow)"><animate attributeName="rx" values="150;130;150" dur="6s" repeatCount="indefinite"/></ellipse><g transform="translate(930 190)"><g><animateTransform attributeName="transform" type="translate" values="0 0;0 -10;0 0" dur="6s" repeatCount="indefinite"/><g transform="scale(1 0.52)"><g><animateTransform attributeName="transform" type="rotate" values="0;360" dur="28s" repeatCount="indefinite"/><path d="M0 0 C -24 -16, -30 -56, 0 -76 C 30 -56, 24 -16, 0 0 Z" fill="url(#sp12)" stroke="#FFFFFF" stroke-opacity="0.1" transform="rotate(0) scale(1.95)"/><path d="M0 0 C -24 -16, -30 -56, 0 -76 C 30 -56, 24 -16, 0 0 Z" fill="url(#sp12)" stroke="#FFFFFF" stroke-opacity="0.1" transform="rotate(45) scale(1.95)"/><path d="M0 0 C -24 -16, -30 -56, 0 -76 C 30 -56, 24 -16, 0 0 Z" fill="url(#sp12)" stroke="#FFFFFF" stroke-opacity="0.1" transform="rotate(90) scale(1.95)"/><path d="M0 0 C -24 -16, -30 -56, 0 -76 C 30 -56, 24 -16, 0 0 Z" fill="url(#sp12)" stroke="#FFFFFF" stroke-opacity="0.1" transform="rotate(135) scale(1.95)"/><path d="M0 0 C -24 -16, -30 -56, 0 -76 C 30 -56, 24 -16, 0 0 Z" fill="url(#sp12)" stroke="#FFFFFF" stroke-opacity="0.1" transform="rotate(180) scale(1.95)"/><path d="M0 0 C -24 -16, -30 -56, 0 -76 C 30 -56, 24 -16, 0 0 Z" fill="url(#sp12)" stroke="#FFFFFF" stroke-opacity="0.1" transform="rotate(225) scale(1.95)"/><path d="M0 0 C -24 -16, -30 -56, 0 -76 C 30 -56, 24 -16, 0 0 Z" fill="url(#sp12)" stroke="#FFFFFF" stroke-opacity="0.1" transform="rotate(270) scale(1.95)"/><path d="M0 0 C -24 -16, -30 -56, 0 -76 C 30 -56, 24 -16, 0 0 Z" fill="url(#sp12)" stroke="#FFFFFF" stroke-opacity="0.1" transform="rotate(315) scale(1.95)"/></g><g><animateTransform attributeName="transform" type="rotate" values="360;0" dur="20s" repeatCount="indefinite"/><path d="M0 0 C -24 -16, -30 -56, 0 -76 C 30 -56, 24 -16, 0 0 Z" fill="url(#sp13)" stroke="#FFFFFF" stroke-opacity="0.12" transform="rotate(22.5) scale(1.25)"/><path d="M0 0 C -24 -16, -30 -56, 0 -76 C 30 -56, 24 -16, 0 0 Z" fill="url(#sp13)" stroke="#FFFFFF" stroke-opacity="0.12" transform="rotate(67.5) scale(1.25)"/><path d="M0 0 C -24 -16, -30 -56, 0 -76 C 30 -56, 24 -16, 0 0 Z" fill="url(#sp13)" stroke="#FFFFFF" stroke-opacity="0.12" transform="rotate(112.5) scale(1.25)"/><path d="M0 0 C -24 -16, -30 -56, 0 -76 C 30 -56, 24 -16, 0 0 Z" fill="url(#sp13)" stroke="#FFFFFF" stroke-opacity="0.12" transform="rotate(157.5) scale(1.25)"/><path d="M0 0 C -24 -16, -30 -56, 0 -76 C 30 -56, 24 -16, 0 0 Z" fill="url(#sp13)" stroke="#FFFFFF" stroke-opacity="0.12" transform="rotate(202.5) scale(1.25)"/><path d="M0 0 C -24 -16, -30 -56, 0 -76 C 30 -56, 24 -16, 0 0 Z" fill="url(#sp13)" stroke="#FFFFFF" stroke-opacity="0.12" transform="rotate(247.5) scale(1.25)"/><path d="M0 0 C -24 -16, -30 -56, 0 -76 C 30 -56, 24 -16, 0 0 Z" fill="url(#sp13)" stroke="#FFFFFF" stroke-opacity="0.12" transform="rotate(292.5) scale(1.25)"/><path d="M0 0 C -24 -16, -30 -56, 0 -76 C 30 -56, 24 -16, 0 0 Z" fill="url(#sp13)" stroke="#FFFFFF" stroke-opacity="0.12" transform="rotate(337.5) scale(1.25)"/></g><circle r="46" fill="url(#sc14)"/><g><animateTransform attributeName="transform" type="rotate" values="0;360" dur="14s" repeatCount="indefinite"/><circle cx="34" cy="0" r="3.4" fill="#DDBE82"/><circle cx="29.4" cy="17" r="3.4" fill="#DDBE82"/><circle cx="17" cy="29.4" r="3.4" fill="#DDBE82"/><circle cx="0" cy="34" r="3.4" fill="#DDBE82"/><circle cx="-17" cy="29.4" r="3.4" fill="#DDBE82"/><circle cx="-29.4" cy="17" r="3.4" fill="#DDBE82"/><circle cx="-34" cy="0" r="3.4" fill="#DDBE82"/><circle cx="-29.4" cy="-17" r="3.4" fill="#DDBE82"/><circle cx="-17" cy="-29.4" r="3.4" fill="#DDBE82"/><circle cx="-0" cy="-34" r="3.4" fill="#DDBE82"/><circle cx="17" cy="-29.4" r="3.4" fill="#DDBE82"/><circle cx="29.4" cy="-17" r="3.4" fill="#DDBE82"/></g></g></g></g>
<path d="M0 0 C 12 -11, 30 -11, 44 0 C 30 11, 12 11, 0 0 Z" fill="#86A98F" fill-opacity="0.9" stroke="#34543F" stroke-width="0.8" transform="translate(1080 360) rotate(-30) scale(1.3)"/><path d="M0 0 C 12 -11, 30 -11, 44 0 C 30 11, 12 11, 0 0 Z" fill="#86A98F" fill-opacity="0.9" stroke="#34543F" stroke-width="0.8" transform="translate(1110 372) rotate(-70) scale(1)"/><defs><radialGradient id="fp1" cx="42%" cy="30%" r="80%"><stop offset="0" stop-color="#F6E9F1"/><stop offset="0.22" stop-color="#C3CCEF"/><stop offset="0.62" stop-color="#8C9EDB"/><stop offset="1" stop-color="#27367A"/></radialGradient><radialGradient id="fc2" cx="38%" cy="32%" r="70%"><stop offset="0" stop-color="#FFF6E0"/><stop offset="0.35" stop-color="#EBCB8B"/><stop offset="1" stop-color="#9C6B25"/></radialGradient></defs><g transform="translate(1150 350) scale(0.7)" opacity="1"><g><path d="M0 0 C -24 -16, -30 -56, 0 -76 C 30 -56, 24 -16, 0 0 Z" fill="url(#fp1)" stroke="#FFFFFF" stroke-opacity="0.12" transform="rotate(10)"/><path d="M0 0 C -24 -16, -30 -56, 0 -76 C 30 -56, 24 -16, 0 0 Z" fill="url(#fp1)" stroke="#FFFFFF" stroke-opacity="0.12" transform="rotate(82)"/><path d="M0 0 C -24 -16, -30 -56, 0 -76 C 30 -56, 24 -16, 0 0 Z" fill="url(#fp1)" stroke="#FFFFFF" stroke-opacity="0.12" transform="rotate(154)"/><path d="M0 0 C -24 -16, -30 -56, 0 -76 C 30 -56, 24 -16, 0 0 Z" fill="url(#fp1)" stroke="#FFFFFF" stroke-opacity="0.12" transform="rotate(226)"/><path d="M0 0 C -24 -16, -30 -56, 0 -76 C 30 -56, 24 -16, 0 0 Z" fill="url(#fp1)" stroke="#FFFFFF" stroke-opacity="0.12" transform="rotate(298)"/><circle r="17" fill="url(#fc2)"/></g></g><path d="M0 0 C 12 -11, 30 -11, 44 0 C 30 11, 12 11, 0 0 Z" fill="#86A98F" fill-opacity="0.9" stroke="#34543F" stroke-width="0.8" transform="translate(700 380) rotate(-150) scale(1.1)"/><defs><radialGradient id="fp3" cx="42%" cy="30%" r="80%"><stop offset="0" stop-color="#F6E9F1"/><stop offset="0.22" stop-color="#D6CCF0"/><stop offset="0.62" stop-color="#A897D8"/><stop offset="1" stop-color="#3E2F73"/></radialGradient><radialGradient id="fc4" cx="38%" cy="32%" r="70%"><stop offset="0" stop-color="#FFF6E0"/><stop offset="0.35" stop-color="#EBCB8B"/><stop offset="1" stop-color="#9C6B25"/></radialGradient></defs><g transform="translate(720 392) scale(0.4)" opacity="0.9"><g><path d="M0 0 C -24 -16, -30 -56, 0 -76 C 30 -56, 24 -16, 0 0 Z" fill="url(#fp3)" stroke="#FFFFFF" stroke-opacity="0.12" transform="rotate(30)"/><path d="M0 0 C -24 -16, -30 -56, 0 -76 C 30 -56, 24 -16, 0 0 Z" fill="url(#fp3)" stroke="#FFFFFF" stroke-opacity="0.12" transform="rotate(102)"/><path d="M0 0 C -24 -16, -30 -56, 0 -76 C 30 -56, 24 -16, 0 0 Z" fill="url(#fp3)" stroke="#FFFFFF" stroke-opacity="0.12" transform="rotate(174)"/><path d="M0 0 C -24 -16, -30 -56, 0 -76 C 30 -56, 24 -16, 0 0 Z" fill="url(#fp3)" stroke="#FFFFFF" stroke-opacity="0.12" transform="rotate(246)"/><path d="M0 0 C -24 -16, -30 -56, 0 -76 C 30 -56, 24 -16, 0 0 Z" fill="url(#fp3)" stroke="#FFFFFF" stroke-opacity="0.12" transform="rotate(318)"/><circle r="17" fill="url(#fc4)"/></g></g><path d="M0 0 C 12 -11, 30 -11, 44 0 C 30 11, 12 11, 0 0 Z" fill="#86A98F" fill-opacity="0.9" stroke="#34543F" stroke-width="0.8" transform="translate(1120 40) rotate(160) scale(1.1)"/><defs><radialGradient id="fp5" cx="42%" cy="30%" r="80%"><stop offset="0" stop-color="#F6E9F1"/><stop offset="0.22" stop-color="#E8B7D0"/><stop offset="0.62" stop-color="#D38DB2"/><stop offset="1" stop-color="#6E2F55"/></radialGradient><radialGradient id="fc6" cx="38%" cy="32%" r="70%"><stop offset="0" stop-color="#FFF6E0"/><stop offset="0.35" stop-color="#EBCB8B"/><stop offset="1" stop-color="#9C6B25"/></radialGradient></defs><g transform="translate(1165 26) scale(0.6)" opacity="1"><g><path d="M0 0 C -24 -16, -30 -56, 0 -76 C 30 -56, 24 -16, 0 0 Z" fill="url(#fp5)" stroke="#FFFFFF" stroke-opacity="0.12" transform="rotate(20)"/><path d="M0 0 C -24 -16, -30 -56, 0 -76 C 30 -56, 24 -16, 0 0 Z" fill="url(#fp5)" stroke="#FFFFFF" stroke-opacity="0.12" transform="rotate(92)"/><path d="M0 0 C -24 -16, -30 -56, 0 -76 C 30 -56, 24 -16, 0 0 Z" fill="url(#fp5)" stroke="#FFFFFF" stroke-opacity="0.12" transform="rotate(164)"/><path d="M0 0 C -24 -16, -30 -56, 0 -76 C 30 -56, 24 -16, 0 0 Z" fill="url(#fp5)" stroke="#FFFFFF" stroke-opacity="0.12" transform="rotate(236)"/><path d="M0 0 C -24 -16, -30 -56, 0 -76 C 30 -56, 24 -16, 0 0 Z" fill="url(#fp5)" stroke="#FFFFFF" stroke-opacity="0.12" transform="rotate(308)"/><circle r="17" fill="url(#fc6)"/></g></g><defs><radialGradient id="fp7" cx="42%" cy="30%" r="80%"><stop offset="0" stop-color="#F6E9F1"/><stop offset="0.22" stop-color="#D6CCF0"/><stop offset="0.62" stop-color="#A897D8"/><stop offset="1" stop-color="#3E2F73"/></radialGradient><radialGradient id="fc8" cx="38%" cy="32%" r="70%"><stop offset="0" stop-color="#FFF6E0"/><stop offset="0.35" stop-color="#EBCB8B"/><stop offset="1" stop-color="#9C6B25"/></radialGradient></defs><g transform="translate(612 34) scale(0.3)" opacity="0.8"><g><path d="M0 0 C -24 -16, -30 -56, 0 -76 C 30 -56, 24 -16, 0 0 Z" fill="url(#fp7)" stroke="#FFFFFF" stroke-opacity="0.12" transform="rotate(5)"/><path d="M0 0 C -24 -16, -30 -56, 0 -76 C 30 -56, 24 -16, 0 0 Z" fill="url(#fp7)" stroke="#FFFFFF" stroke-opacity="0.12" transform="rotate(77)"/><path d="M0 0 C -24 -16, -30 -56, 0 -76 C 30 -56, 24 -16, 0 0 Z" fill="url(#fp7)" stroke="#FFFFFF" stroke-opacity="0.12" transform="rotate(149)"/><path d="M0 0 C -24 -16, -30 -56, 0 -76 C 30 -56, 24 -16, 0 0 Z" fill="url(#fp7)" stroke="#FFFFFF" stroke-opacity="0.12" transform="rotate(221)"/><path d="M0 0 C -24 -16, -30 -56, 0 -76 C 30 -56, 24 -16, 0 0 Z" fill="url(#fp7)" stroke="#FFFFFF" stroke-opacity="0.12" transform="rotate(293)"/><circle r="17" fill="url(#fc8)"/></g></g>
<text x="60" y="92" font-family="'SFMono-Regular', Consolas, 'Liberation Mono', Menlo, monospace" font-size="16" fill="#D38DB2">~/nandika $ whoami</text>
<text x="60" y="158" font-family="'Segoe UI', Ubuntu, 'Helvetica Neue', Arial, sans-serif" font-size="56" font-weight="800" fill="#F1EEF9" letter-spacing="-1">Hi, I'm <tspan fill="url(#name)">Nandika P T</tspan></text>
<text x="60" y="226" font-family="'SFMono-Regular', Consolas, 'Liberation Mono', Menlo, monospace" font-size="24" fill="#DDBE82">&gt;</text>
<clipPath id="tc0"><rect x="88" y="202" height="36.0" width="0"><animate attributeName="width" dur="18s" repeatCount="indefinite" calcMode="discrete" keyTimes="0.0000;0.0039;0.0079;0.0118;0.0158;0.0197;0.0237;0.0276;0.0316;0.0355;0.0395;0.0434;0.0474;0.0513;0.0553;0.0592;0.0632;0.0671;0.0711;0.0750;0.1367;0.1389;0.1411;0.1433;0.1456;0.1478;0.1500;0.1522;0.1544;0.1567;0.1667;1.0000" values="0;14.4;28.8;43.2;57.6;72;86.4;100.8;115.2;129.6;144;158.4;172.8;187.2;201.6;216;230.4;244.8;259.2;273.6;273.6;243.2;212.8;182.4;152;121.6;91.2;60.8;30.4;0;0;0"/></rect></clipPath>
<text x="88" y="226" clip-path="url(#tc0)" font-family="'SFMono-Regular', Consolas, 'Liberation Mono', Menlo, monospace" font-size="24" fill="#F1EEF9" textLength="273.6" lengthAdjust="spacingAndGlyphs">CSE student @ CUSAT</text>
<rect y="205.6" width="3" height="25.200000000000003" rx="1.5" fill="#DDBE82" x="88" opacity="0"><animate attributeName="x" dur="18s" repeatCount="indefinite" calcMode="discrete" keyTimes="0.0000;0.0039;0.0079;0.0118;0.0158;0.0197;0.0237;0.0276;0.0316;0.0355;0.0395;0.0434;0.0474;0.0513;0.0553;0.0592;0.0632;0.0671;0.0711;0.0750;0.1367;0.1389;0.1411;0.1433;0.1456;0.1478;0.1500;0.1522;0.1544;0.1567;0.1667;1.0000" values="90;104.4;118.8;133.2;147.6;162;176.4;190.8;205.2;219.6;234;248.4;262.8;277.2;291.6;306;320.4;334.8;349.2;363.6;363.6;333.2;302.8;272.4;242;211.6;181.2;150.8;120.4;90;90;90"/><animate attributeName="opacity" dur="18s" repeatCount="indefinite" calcMode="discrete" keyTimes="0.0000;0.0039;0.0079;0.0118;0.0158;0.0197;0.0237;0.0276;0.0316;0.0355;0.0395;0.0434;0.0474;0.0513;0.0553;0.0592;0.0632;0.0671;0.0711;0.0750;0.1367;0.1389;0.1411;0.1433;0.1456;0.1478;0.1500;0.1522;0.1544;0.1567;0.1667;1.0000" values="1;1;1;1;1;1;1;1;1;1;1;1;1;1;1;1;1;1;1;1;1;1;1;1;1;1;1;1;1;1;0;0"/></rect>
<clipPath id="tc1"><rect x="88" y="202" height="36.0" width="0"><animate attributeName="width" dur="18s" repeatCount="indefinite" calcMode="discrete" keyTimes="0.0000;0.1667;0.1693;0.1720;0.1747;0.1774;0.1801;0.1827;0.1854;0.1881;0.1908;0.1935;0.1961;0.1988;0.2015;0.2042;0.2068;0.2095;0.2122;0.2149;0.2176;0.2202;0.2229;0.2256;0.2283;0.2310;0.2336;0.2363;0.2390;0.2417;0.3033;0.3048;0.3062;0.3076;0.3090;0.3105;0.3119;0.3133;0.3148;0.3162;0.3176;0.3190;0.3205;0.3219;0.3233;0.3333;1.0000" values="0;0;14.4;28.8;43.2;57.6;72;86.4;100.8;115.2;129.6;144;158.4;172.8;187.2;201.6;216;230.4;244.8;259.2;273.6;288;302.4;316.8;331.2;345.6;360;374.4;388.8;403.2;403.2;374.4;345.6;316.8;288;259.2;230.4;201.6;172.8;144;115.2;86.4;57.6;28.8;0;0;0"/></rect></clipPath>
<text x="88" y="226" clip-path="url(#tc1)" font-family="'SFMono-Regular', Consolas, 'Liberation Mono', Menlo, monospace" font-size="24" fill="#F1EEF9" textLength="403.2" lengthAdjust="spacingAndGlyphs">BS Data Science @ IIT Madras</text>
<rect y="205.6" width="3" height="25.200000000000003" rx="1.5" fill="#DDBE82" x="88" opacity="0"><animate attributeName="x" dur="18s" repeatCount="indefinite" calcMode="discrete" keyTimes="0.0000;0.1667;0.1693;0.1720;0.1747;0.1774;0.1801;0.1827;0.1854;0.1881;0.1908;0.1935;0.1961;0.1988;0.2015;0.2042;0.2068;0.2095;0.2122;0.2149;0.2176;0.2202;0.2229;0.2256;0.2283;0.2310;0.2336;0.2363;0.2390;0.2417;0.3033;0.3048;0.3062;0.3076;0.3090;0.3105;0.3119;0.3133;0.3148;0.3162;0.3176;0.3190;0.3205;0.3219;0.3233;0.3333;1.0000" values="90;90;104.4;118.8;133.2;147.6;162;176.4;190.8;205.2;219.6;234;248.4;262.8;277.2;291.6;306;320.4;334.8;349.2;363.6;378;392.4;406.8;421.2;435.6;450;464.4;478.8;493.2;493.2;464.4;435.6;406.8;378;349.2;320.4;291.6;262.8;234;205.2;176.4;147.6;118.8;90;90;90"/><animate attributeName="opacity" dur="18s" repeatCount="indefinite" calcMode="discrete" keyTimes="0.0000;0.1667;0.1693;0.1720;0.1747;0.1774;0.1801;0.1827;0.1854;0.1881;0.1908;0.1935;0.1961;0.1988;0.2015;0.2042;0.2068;0.2095;0.2122;0.2149;0.2176;0.2202;0.2229;0.2256;0.2283;0.2310;0.2336;0.2363;0.2390;0.2417;0.3033;0.3048;0.3062;0.3076;0.3090;0.3105;0.3119;0.3133;0.3148;0.3162;0.3176;0.3190;0.3205;0.3219;0.3233;0.3333;1.0000" values="0;1;1;1;1;1;1;1;1;1;1;1;1;1;1;1;1;1;1;1;1;1;1;1;1;1;1;1;1;1;1;1;1;1;1;1;1;1;1;1;1;1;1;1;1;0;0"/></rect>
<clipPath id="tc2"><rect x="88" y="202" height="36.0" width="0"><animate attributeName="width" dur="18s" repeatCount="indefinite" calcMode="discrete" keyTimes="0.0000;0.3333;0.3362;0.3391;0.3420;0.3449;0.3478;0.3506;0.3535;0.3564;0.3593;0.3622;0.3651;0.3679;0.3708;0.3737;0.3766;0.3795;0.3824;0.3853;0.3881;0.3910;0.3939;0.3968;0.3997;0.4026;0.4054;0.4083;0.4700;0.4715;0.4731;0.4746;0.4762;0.4777;0.4792;0.4808;0.4823;0.4838;0.4854;0.4869;0.4885;0.4900;0.5000;1.0000" values="0;0;14.4;28.8;43.2;57.6;72;86.4;100.8;115.2;129.6;144;158.4;172.8;187.2;201.6;216;230.4;244.8;259.2;273.6;288;302.4;316.8;331.2;345.6;360;374.4;374.4;345.6;316.8;288;259.2;230.4;201.6;172.8;144;115.2;86.4;57.6;28.8;0;0;0"/></rect></clipPath>
<text x="88" y="226" clip-path="url(#tc2)" font-family="'SFMono-Regular', Consolas, 'Liberation Mono', Menlo, monospace" font-size="24" fill="#F1EEF9" textLength="374.4" lengthAdjust="spacingAndGlyphs">quantum computing explorer</text>
<rect y="205.6" width="3" height="25.200000000000003" rx="1.5" fill="#DDBE82" x="88" opacity="0"><animate attributeName="x" dur="18s" repeatCount="indefinite" calcMode="discrete" keyTimes="0.0000;0.3333;0.3362;0.3391;0.3420;0.3449;0.3478;0.3506;0.3535;0.3564;0.3593;0.3622;0.3651;0.3679;0.3708;0.3737;0.3766;0.3795;0.3824;0.3853;0.3881;0.3910;0.3939;0.3968;0.3997;0.4026;0.4054;0.4083;0.4700;0.4715;0.4731;0.4746;0.4762;0.4777;0.4792;0.4808;0.4823;0.4838;0.4854;0.4869;0.4885;0.4900;0.5000;1.0000" values="90;90;104.4;118.8;133.2;147.6;162;176.4;190.8;205.2;219.6;234;248.4;262.8;277.2;291.6;306;320.4;334.8;349.2;363.6;378;392.4;406.8;421.2;435.6;450;464.4;464.4;435.6;406.8;378;349.2;320.4;291.6;262.8;234;205.2;176.4;147.6;118.8;90;90;90"/><animate attributeName="opacity" dur="18s" repeatCount="indefinite" calcMode="discrete" keyTimes="0.0000;0.3333;0.3362;0.3391;0.3420;0.3449;0.3478;0.3506;0.3535;0.3564;0.3593;0.3622;0.3651;0.3679;0.3708;0.3737;0.3766;0.3795;0.3824;0.3853;0.3881;0.3910;0.3939;0.3968;0.3997;0.4026;0.4054;0.4083;0.4700;0.4715;0.4731;0.4746;0.4762;0.4777;0.4792;0.4808;0.4823;0.4838;0.4854;0.4869;0.4885;0.4900;0.5000;1.0000" values="0;1;1;1;1;1;1;1;1;1;1;1;1;1;1;1;1;1;1;1;1;1;1;1;1;1;1;1;1;1;1;1;1;1;1;1;1;1;1;1;1;1;0;0"/></rect>
<clipPath id="tc3"><rect x="88" y="202" height="36.0" width="0"><animate attributeName="width" dur="18s" repeatCount="indefinite" calcMode="discrete" keyTimes="0.0000;0.5000;0.5038;0.5075;0.5112;0.5150;0.5188;0.5225;0.5262;0.5300;0.5337;0.5375;0.5413;0.5450;0.5487;0.5525;0.5562;0.5600;0.5638;0.5675;0.5713;0.5750;0.6367;0.6387;0.6407;0.6427;0.6447;0.6467;0.6487;0.6507;0.6527;0.6547;0.6567;0.6667;1.0000" values="0;0;14.4;28.8;43.2;57.6;72;86.4;100.8;115.2;129.6;144;158.4;172.8;187.2;201.6;216;230.4;244.8;259.2;273.6;288;288;259.2;230.4;201.6;172.8;144;115.2;86.4;57.6;28.8;0;0;0"/></rect></clipPath>
<text x="88" y="226" clip-path="url(#tc3)" font-family="'SFMono-Regular', Consolas, 'Liberation Mono', Menlo, monospace" font-size="24" fill="#F1EEF9" textLength="288" lengthAdjust="spacingAndGlyphs">mathematical modeler</text>
<rect y="205.6" width="3" height="25.200000000000003" rx="1.5" fill="#DDBE82" x="88" opacity="0"><animate attributeName="x" dur="18s" repeatCount="indefinite" calcMode="discrete" keyTimes="0.0000;0.5000;0.5038;0.5075;0.5112;0.5150;0.5188;0.5225;0.5262;0.5300;0.5337;0.5375;0.5413;0.5450;0.5487;0.5525;0.5562;0.5600;0.5638;0.5675;0.5713;0.5750;0.6367;0.6387;0.6407;0.6427;0.6447;0.6467;0.6487;0.6507;0.6527;0.6547;0.6567;0.6667;1.0000" values="90;90;104.4;118.8;133.2;147.6;162;176.4;190.8;205.2;219.6;234;248.4;262.8;277.2;291.6;306;320.4;334.8;349.2;363.6;378;378;349.2;320.4;291.6;262.8;234;205.2;176.4;147.6;118.8;90;90;90"/><animate attributeName="opacity" dur="18s" repeatCount="indefinite" calcMode="discrete" keyTimes="0.0000;0.5000;0.5038;0.5075;0.5112;0.5150;0.5188;0.5225;0.5262;0.5300;0.5337;0.5375;0.5413;0.5450;0.5487;0.5525;0.5562;0.5600;0.5638;0.5675;0.5713;0.5750;0.6367;0.6387;0.6407;0.6427;0.6447;0.6467;0.6487;0.6507;0.6527;0.6547;0.6567;0.6667;1.0000" values="0;1;1;1;1;1;1;1;1;1;1;1;1;1;1;1;1;1;1;1;1;1;1;1;1;1;1;1;1;1;1;1;1;0;0"/></rect>
<clipPath id="tc4"><rect x="88" y="202" height="36.0" width="0"><animate attributeName="width" dur="18s" repeatCount="indefinite" calcMode="discrete" keyTimes="0.0000;0.6667;0.6694;0.6722;0.6750;0.6778;0.6806;0.6833;0.6861;0.6889;0.6917;0.6944;0.6972;0.7000;0.7028;0.7056;0.7083;0.7111;0.7139;0.7167;0.7194;0.7222;0.7250;0.7278;0.7306;0.7333;0.7361;0.7389;0.7417;0.8033;0.8049;0.8064;0.8079;0.8095;0.8110;0.8126;0.8141;0.8156;0.8172;0.8187;0.8203;0.8218;0.8233;0.8333;1.0000" values="0;0;14.4;28.8;43.2;57.6;72;86.4;100.8;115.2;129.6;144;158.4;172.8;187.2;201.6;216;230.4;244.8;259.2;273.6;288;302.4;316.8;331.2;345.6;360;374.4;388.8;388.8;358.9;329;299.1;269.2;239.3;209.4;179.4;149.5;119.6;89.7;59.8;29.9;0;0;0"/></rect></clipPath>
<text x="88" y="226" clip-path="url(#tc4)" font-family="'SFMono-Regular', Consolas, 'Liberation Mono', Menlo, monospace" font-size="24" fill="#F1EEF9" textLength="388.8" lengthAdjust="spacingAndGlyphs">SIG AI Lead @ IEEE CS CUSAT</text>
<rect y="205.6" width="3" height="25.200000000000003" rx="1.5" fill="#DDBE82" x="88" opacity="0"><animate attributeName="x" dur="18s" repeatCount="indefinite" calcMode="discrete" keyTimes="0.0000;0.6667;0.6694;0.6722;0.6750;0.6778;0.6806;0.6833;0.6861;0.6889;0.6917;0.6944;0.6972;0.7000;0.7028;0.7056;0.7083;0.7111;0.7139;0.7167;0.7194;0.7222;0.7250;0.7278;0.7306;0.7333;0.7361;0.7389;0.7417;0.8033;0.8049;0.8064;0.8079;0.8095;0.8110;0.8126;0.8141;0.8156;0.8172;0.8187;0.8203;0.8218;0.8233;0.8333;1.0000" values="90;90;104.4;118.8;133.2;147.6;162;176.4;190.8;205.2;219.6;234;248.4;262.8;277.2;291.6;306;320.4;334.8;349.2;363.6;378;392.4;406.8;421.2;435.6;450;464.4;478.8;478.8;448.9;419;389.1;359.2;329.3;299.4;269.4;239.5;209.6;179.7;149.8;119.9;90;90;90"/><animate attributeName="opacity" dur="18s" repeatCount="indefinite" calcMode="discrete" keyTimes="0.0000;0.6667;0.6694;0.6722;0.6750;0.6778;0.6806;0.6833;0.6861;0.6889;0.6917;0.6944;0.6972;0.7000;0.7028;0.7056;0.7083;0.7111;0.7139;0.7167;0.7194;0.7222;0.7250;0.7278;0.7306;0.7333;0.7361;0.7389;0.7417;0.8033;0.8049;0.8064;0.8079;0.8095;0.8110;0.8126;0.8141;0.8156;0.8172;0.8187;0.8203;0.8218;0.8233;0.8333;1.0000" values="0;1;1;1;1;1;1;1;1;1;1;1;1;1;1;1;1;1;1;1;1;1;1;1;1;1;1;1;1;1;1;1;1;1;1;1;1;1;1;1;1;1;1;0;0"/></rect>
<clipPath id="tc5"><rect x="88" y="202" height="36.0" width="0"><animate attributeName="width" dur="18s" repeatCount="indefinite" calcMode="discrete" keyTimes="0.0000;0.8333;0.8359;0.8385;0.8411;0.8437;0.8463;0.8489;0.8514;0.8540;0.8566;0.8592;0.8618;0.8644;0.8670;0.8695;0.8721;0.8747;0.8773;0.8799;0.8825;0.8851;0.8876;0.8902;0.8928;0.8954;0.8980;0.9006;0.9032;0.9057;0.9083;0.9700;0.9714;0.9729;0.9743;0.9757;0.9771;0.9786;0.9800;0.9814;0.9829;0.9843;0.9857;0.9871;0.9886;0.9900;1.0000" values="0;0;14.4;28.8;43.2;57.6;72;86.4;100.8;115.2;129.6;144;158.4;172.8;187.2;201.6;216;230.4;244.8;259.2;273.6;288;302.4;316.8;331.2;345.6;360;374.4;388.8;403.2;417.6;417.6;387.8;357.9;328.1;298.3;268.5;238.6;208.8;179;149.1;119.3;89.5;59.7;29.8;0;0"/></rect></clipPath>
<text x="88" y="226" clip-path="url(#tc5)" font-family="'SFMono-Regular', Consolas, 'Liberation Mono', Menlo, monospace" font-size="24" fill="#F1EEF9" textLength="417.6" lengthAdjust="spacingAndGlyphs">growing ideas into real tools</text>
<rect y="205.6" width="3" height="25.200000000000003" rx="1.5" fill="#DDBE82" x="88" opacity="0"><animate attributeName="x" dur="18s" repeatCount="indefinite" calcMode="discrete" keyTimes="0.0000;0.8333;0.8359;0.8385;0.8411;0.8437;0.8463;0.8489;0.8514;0.8540;0.8566;0.8592;0.8618;0.8644;0.8670;0.8695;0.8721;0.8747;0.8773;0.8799;0.8825;0.8851;0.8876;0.8902;0.8928;0.8954;0.8980;0.9006;0.9032;0.9057;0.9083;0.9700;0.9714;0.9729;0.9743;0.9757;0.9771;0.9786;0.9800;0.9814;0.9829;0.9843;0.9857;0.9871;0.9886;0.9900;1.0000" values="90;90;104.4;118.8;133.2;147.6;162;176.4;190.8;205.2;219.6;234;248.4;262.8;277.2;291.6;306;320.4;334.8;349.2;363.6;378;392.4;406.8;421.2;435.6;450;464.4;478.8;493.2;507.6;507.6;477.8;447.9;418.1;388.3;358.5;328.6;298.8;269;239.1;209.3;179.5;149.7;119.8;90;90"/><animate attributeName="opacity" dur="18s" repeatCount="indefinite" calcMode="discrete" keyTimes="0.0000;0.8333;0.8359;0.8385;0.8411;0.8437;0.8463;0.8489;0.8514;0.8540;0.8566;0.8592;0.8618;0.8644;0.8670;0.8695;0.8721;0.8747;0.8773;0.8799;0.8825;0.8851;0.8876;0.8902;0.8928;0.8954;0.8980;0.9006;0.9032;0.9057;0.9083;0.9700;0.9714;0.9729;0.9743;0.9757;0.9771;0.9786;0.9800;0.9814;0.9829;0.9843;0.9857;0.9871;0.9886;0.9900;1.0000" values="0;1;1;1;1;1;1;1;1;1;1;1;1;1;1;1;1;1;1;1;1;1;1;1;1;1;1;1;1;1;1;1;1;1;1;1;1;1;1;1;1;1;1;1;1;1;0"/></rect>
<g transform="translate(60 292)"><rect width="172.9" height="32" rx="16" fill="#1C1833" stroke="#D38DB2" stroke-opacity="0.55"/><circle cx="16" cy="16" r="4" fill="#D38DB2"/><text x="28" y="21" font-family="'Segoe UI', Ubuntu, 'Helvetica Neue', Arial, sans-serif" font-size="14" font-weight="600" fill="#F1EEF9">Machine Learning</text></g><g transform="translate(244.9 292)"><rect width="181.6" height="32" rx="16" fill="#1C1833" stroke="#8C9EDB" stroke-opacity="0.55"/><circle cx="16" cy="16" r="4" fill="#8C9EDB"/><text x="28" y="21" font-family="'Segoe UI', Ubuntu, 'Helvetica Neue', Arial, sans-serif" font-size="14" font-weight="600" fill="#F1EEF9">Quantum Computing</text></g><g transform="translate(438.4 292)"><rect width="146.8" height="32" rx="16" fill="#1C1833" stroke="#DDBE82" stroke-opacity="0.55"/><circle cx="16" cy="16" r="4" fill="#DDBE82"/><text x="28" y="21" font-family="'Segoe UI', Ubuntu, 'Helvetica Neue', Arial, sans-serif" font-size="14" font-weight="600" fill="#F1EEF9">Math Modeling</text></g>
<g><animateMotion path="M -80 330 C 180 160, 420 380, 640 230 S 1020 60, 1300 170" dur="22s" begin="0s" repeatCount="indefinite" rotate="auto"/><g transform="rotate(90)"><defs><linearGradient id="bw9" x1="0" y1="0" x2="1" y2="1"><stop offset="0" stop-color="#D38DB2"/><stop offset="1" stop-color="#3E2F73"/></linearGradient></defs><g transform="scale(0.85)"><g><animateTransform attributeName="transform" type="scale" values="1 1;0.18 1;1 1" dur="0.42s" repeatCount="indefinite"/><path d="M0 -2 C 8 -30, 42 -36, 40 -10 C 38 4, 16 6, 0 2 Z" fill="url(#bw9)" stroke="#2A2046" stroke-width="1.2"/><path d="M0 2 C 18 6, 32 14, 26 30 C 18 40, 4 24, 0 8 Z" fill="url(#bw9)" stroke="#2A2046" stroke-width="1.2"/><path d="M3 -3 C 14 -18, 28 -22, 34 -14" fill="none" stroke="#2A2046" stroke-opacity="0.5" stroke-width="0.8"/><circle cx="30" cy="-16" r="3.2" fill="#DDBE82" fill-opacity="0.85"/><circle cx="20" cy="20" r="2.4" fill="#F1EEF9" fill-opacity="0.7"/></g><g transform="scale(-1 1)"><g><animateTransform attributeName="transform" type="scale" values="1 1;0.18 1;1 1" dur="0.42s" repeatCount="indefinite"/><path d="M0 -2 C 8 -30, 42 -36, 40 -10 C 38 4, 16 6, 0 2 Z" fill="url(#bw9)" stroke="#2A2046" stroke-width="1.2"/><path d="M0 2 C 18 6, 32 14, 26 30 C 18 40, 4 24, 0 8 Z" fill="url(#bw9)" stroke="#2A2046" stroke-width="1.2"/><path d="M3 -3 C 14 -18, 28 -22, 34 -14" fill="none" stroke="#2A2046" stroke-opacity="0.5" stroke-width="0.8"/><circle cx="30" cy="-16" r="3.2" fill="#DDBE82" fill-opacity="0.85"/><circle cx="20" cy="20" r="2.4" fill="#F1EEF9" fill-opacity="0.7"/></g></g><ellipse cx="0" cy="3" rx="2.6" ry="13" fill="#2A2046"/><path d="M-1 -9 C -4 -18, -8 -22, -11 -24 M1 -9 C 4 -18, 8 -22, 11 -24" fill="none" stroke="#2A2046" stroke-width="1.2" stroke-linecap="round"/></g></g></g><g><animateMotion path="M 1290 90 C 1080 190, 900 20, 760 120 S 480 250, -90 110" dur="26s" begin="-9s" repeatCount="indefinite" rotate="auto"/><g transform="rotate(90)"><defs><linearGradient id="bw10" x1="0" y1="0" x2="1" y2="1"><stop offset="0" stop-color="#8C9EDB"/><stop offset="1" stop-color="#6E2F55"/></linearGradient></defs><g transform="scale(0.7)"><g><animateTransform attributeName="transform" type="scale" values="1 1;0.18 1;1 1" dur="0.36s" repeatCount="indefinite"/><path d="M0 -2 C 8 -30, 42 -36, 40 -10 C 38 4, 16 6, 0 2 Z" fill="url(#bw10)" stroke="#2A2046" stroke-width="1.2"/><path d="M0 2 C 18 6, 32 14, 26 30 C 18 40, 4 24, 0 8 Z" fill="url(#bw10)" stroke="#2A2046" stroke-width="1.2"/><path d="M3 -3 C 14 -18, 28 -22, 34 -14" fill="none" stroke="#2A2046" stroke-opacity="0.5" stroke-width="0.8"/><circle cx="30" cy="-16" r="3.2" fill="#DDBE82" fill-opacity="0.85"/><circle cx="20" cy="20" r="2.4" fill="#F1EEF9" fill-opacity="0.7"/></g><g transform="scale(-1 1)"><g><animateTransform attributeName="transform" type="scale" values="1 1;0.18 1;1 1" dur="0.36s" repeatCount="indefinite"/><path d="M0 -2 C 8 -30, 42 -36, 40 -10 C 38 4, 16 6, 0 2 Z" fill="url(#bw10)" stroke="#2A2046" stroke-width="1.2"/><path d="M0 2 C 18 6, 32 14, 26 30 C 18 40, 4 24, 0 8 Z" fill="url(#bw10)" stroke="#2A2046" stroke-width="1.2"/><path d="M3 -3 C 14 -18, 28 -22, 34 -14" fill="none" stroke="#2A2046" stroke-opacity="0.5" stroke-width="0.8"/><circle cx="30" cy="-16" r="3.2" fill="#DDBE82" fill-opacity="0.85"/><circle cx="20" cy="20" r="2.4" fill="#F1EEF9" fill-opacity="0.7"/></g></g><ellipse cx="0" cy="3" rx="2.6" ry="13" fill="#2A2046"/><path d="M-1 -9 C -4 -18, -8 -22, -11 -24 M1 -9 C 4 -18, 8 -22, 11 -24" fill="none" stroke="#2A2046" stroke-width="1.2" stroke-linecap="round"/></g></g></g><g><animateMotion path="M 930 110 C 1040 110, 1060 250, 930 260 C 800 270, 800 110, 930 110 Z" dur="9s" begin="0s" repeatCount="indefinite" rotate="auto"/><g transform="rotate(90)"><defs><linearGradient id="bw11" x1="0" y1="0" x2="1" y2="1"><stop offset="0" stop-color="#DDBE82"/><stop offset="1" stop-color="#6E2F55"/></linearGradient></defs><g transform="scale(0.55)"><g><animateTransform attributeName="transform" type="scale" values="1 1;0.18 1;1 1" dur="0.3s" repeatCount="indefinite"/><path d="M0 -2 C 8 -30, 42 -36, 40 -10 C 38 4, 16 6, 0 2 Z" fill="url(#bw11)" stroke="#2A2046" stroke-width="1.2"/><path d="M0 2 C 18 6, 32 14, 26 30 C 18 40, 4 24, 0 8 Z" fill="url(#bw11)" stroke="#2A2046" stroke-width="1.2"/><path d="M3 -3 C 14 -18, 28 -22, 34 -14" fill="none" stroke="#2A2046" stroke-opacity="0.5" stroke-width="0.8"/><circle cx="30" cy="-16" r="3.2" fill="#DDBE82" fill-opacity="0.85"/><circle cx="20" cy="20" r="2.4" fill="#F1EEF9" fill-opacity="0.7"/></g><g transform="scale(-1 1)"><g><animateTransform attributeName="transform" type="scale" values="1 1;0.18 1;1 1" dur="0.3s" repeatCount="indefinite"/><path d="M0 -2 C 8 -30, 42 -36, 40 -10 C 38 4, 16 6, 0 2 Z" fill="url(#bw11)" stroke="#2A2046" stroke-width="1.2"/><path d="M0 2 C 18 6, 32 14, 26 30 C 18 40, 4 24, 0 8 Z" fill="url(#bw11)" stroke="#2A2046" stroke-width="1.2"/><path d="M3 -3 C 14 -18, 28 -22, 34 -14" fill="none" stroke="#2A2046" stroke-opacity="0.5" stroke-width="0.8"/><circle cx="30" cy="-16" r="3.2" fill="#DDBE82" fill-opacity="0.85"/><circle cx="20" cy="20" r="2.4" fill="#F1EEF9" fill-opacity="0.7"/></g></g><ellipse cx="0" cy="3" rx="2.6" ry="13" fill="#2A2046"/><path d="M-1 -9 C -4 -18, -8 -22, -11 -24 M1 -9 C 4 -18, 8 -22, 11 -24" fill="none" stroke="#2A2046" stroke-width="1.2" stroke-linecap="round"/></g></g></g>
</g>
<rect x="0.5" y="0.5" width="1199" height="399" rx="24" fill="none" stroke="#2A2548"/>
</svg>